# xmcd
#
# Track frame offsets: 
#        150
#        18900
#        33889
#        49972
#        69383
#        85688
#        108203
#        121246
#        141702
#        155721
#        181174
#        202120
#        215351
#        229807
#        243153
#        259822
#        275445
#        290134
#        304849
#        322783
#        337300
#
# Disc length: 4518 seconds
#
# Revision: 0
# Processed by: cddbd v1.5.1PL2 Copyright (c) Steve Scherf et al.
# Submitted via: ExactAudioCopy v0.95b2
#
DISCID=3911a415
DTITLE=Various Artist - Горячая 20
DYEAR=2006
DGENRE=Pop
TTITLE0=Звери/До Скорой Встречи
TTITLE1=Савичева Юлия/Как Твои Дела
TTITLE2=Игра Слов/Алина Кабаева
TTITLE3=Чай Вдвоём/24 Часа
TTITLE4=Фабрика/Малина
TTITLE5=Зверев Сергей/Ради Тебя
TTITLE6=Лолита/Даша
TTITLE7=Dj Дождик/Почему Же
TTITLE8=Дубцова Ирина/Медали
TTITLE9=Гости Из Будущего/О Том Как Трудно
TTITLE10=Арбат/Голубоглазая
TTITLE11=Орлова Ольга/Если Ты Меня Ждешь
TTITLE12=Моисеев Борис/Незаконченный Роман
TTITLE13=Нон-Cтоп/Под Запретом (Remix)
TTITLE14=Лиsа/Нет Слов (Remix NeoMaster)
TTITLE15=Жасмин/Первый Близкий
TTITLE16=Фактор 2/Хочу На TV
TTITLE17=Варвара/Отпусти Меня, Река
TTITLE18=Funky/За Горизонт
TTITLE19=Панченко Иван/Медали
TTITLE20=Bonus
EXTD=
EXTT0=
EXTT1=
EXTT2=
EXTT3=
EXTT4=
EXTT5=
EXTT6=
EXTT7=
EXTT8=
EXTT9=
EXTT10=
EXTT11=
EXTT12=
EXTT13=
EXTT14=
EXTT15=
EXTT16=
EXTT17=
EXTT18=
EXTT19=
EXTT20=
PLAYORDER=
